{
	"asset":{
		"generator":"Khronos glTF Blender I/O v4.1.63",
		"version":"2.0"
	},
	"scene":0,
	"scenes":[
		{
			"name":"Scene",
			"nodes":[
				5
			]
		}
	],
	"nodes":[
		{
			"mesh":0,
			"name":"Object_4"
		},
		{
			"mesh":1,
			"name":"Object_5",
			"rotation":[
				0,
				-0.9999991059303284,
				0,
				0.0013485854724422097
			],
			"scale":[
				0.0017141109565272927,
				1,
				0.9999913573265076
			]
		},
		{
			"children":[
				0,
				1
			],
			"name":"Cube_0",
			"scale":[
				1.5734858512878418,
				1,
				1
			]
		},
		{
			"children":[
				2
			],
			"name":"GLTF_SceneRootNode",
			"rotation":[
				0.70710688829422,
				0,
				0,
				0.7071066498756409
			]
		},
		{
			"children":[
				3
			],
			"name":"root"
		},
		{
			"children":[
				4
			],
			"name":"Sketchfab_model",
			"rotation":[
				-0.6830127239227295,
				-0.1830127090215683,
				0.1830127090215683,
				0.6830126643180847
			]
		}
	],
	"materials":[
		{
			"alphaMode":"BLEND",
			"doubleSided":true,
			"name":"Material.001",
			"pbrMetallicRoughness":{
				"baseColorFactor":[
					0,
					0,
					0,
					0.15979455411434174
				],
				"metallicFactor":0,
				"roughnessFactor":0
			}
		},
		{
			"doubleSided":true,
			"name":"Material.002",
			"pbrMetallicRoughness":{
				"baseColorFactor":[
					0,
					0.8006539940834045,
					0.3742839992046356,
					1
				],
				"roughnessFactor":0
			}
		}
	],
	"meshes":[
		{
			"name":"Object_0",
			"primitives":[
				{
					"attributes":{
						"POSITION":0,
						"NORMAL":1,
						"TEXCOORD_0":2
					},
					"indices":3,
					"material":0
				}
			]
		},
		{
			"name":"Object_1",
			"primitives":[
				{
					"attributes":{
						"POSITION":4,
						"NORMAL":5,
						"TEXCOORD_0":6
					},
					"indices":7,
					"material":1
				}
			]
		}
	],
	"accessors":[
		{
			"bufferView":0,
			"componentType":5126,
			"count":346,
			"max":[
				0.0038200030103325844,
				1,
				1
			],
			"min":[
				-0.0038200095295906067,
				-1,
				-1
			],
			"type":"VEC3"
		},
		{
			"bufferView":1,
			"componentType":5126,
			"count":346,
			"type":"VEC3"
		},
		{
			"bufferView":2,
			"componentType":5126,
			"count":346,
			"type":"VEC2"
		},
		{
			"bufferView":3,
			"componentType":5123,
			"count":876,
			"type":"SCALAR"
		},
		{
			"bufferView":4,
			"componentType":5126,
			"count":402,
			"max":[
				0.003935415763407946,
				1,
				1
			],
			"min":[
				-0.003935422748327255,
				-1,
				-1
			],
			"type":"VEC3"
		},
		{
			"bufferView":5,
			"componentType":5126,
			"count":402,
			"type":"VEC3"
		},
		{
			"bufferView":6,
			"componentType":5126,
			"count":402,
			"type":"VEC2"
		},
		{
			"bufferView":7,
			"componentType":5123,
			"count":1032,
			"type":"SCALAR"
		}
	],
	"bufferViews":[
		{
			"buffer":0,
			"byteLength":4152,
			"byteOffset":0,
			"target":34962
		},
		{
			"buffer":0,
			"byteLength":4152,
			"byteOffset":4152,
			"target":34962
		},
		{
			"buffer":0,
			"byteLength":2768,
			"byteOffset":8304,
			"target":34962
		},
		{
			"buffer":0,
			"byteLength":1752,
			"byteOffset":11072,
			"target":34963
		},
		{
			"buffer":0,
			"byteLength":4824,
			"byteOffset":12824,
			"target":34962
		},
		{
			"buffer":0,
			"byteLength":4824,
			"byteOffset":17648,
			"target":34962
		},
		{
			"buffer":0,
			"byteLength":3216,
			"byteOffset":22472,
			"target":34962
		},
		{
			"buffer":0,
			"byteLength":2064,
			"byteOffset":25688,
			"target":34963
		}
	],
	"buffers":[
		{
			"byteLength":27752,
			"uri":"brokenGlass.bin"
		}
	]
}
